<svg width="120" height="120" viewBox="0 0 120 120" fill="none" xmlns="http://www.w3.org/2000/svg">
<rect width="120" height="120" fill="#F8F8F8"/>
<path d="M59.662 13.5938C35.8627 13.5938 37.3486 23.9147 37.3486 23.9147L37.3753 34.6069H60.0867V37.8178H28.3542C28.3542 37.8178 13.125 36.09 13.125 60.1036C13.125 84.1176 26.4173 83.2664 26.4173 83.2664H34.3505V72.1228C34.3505 72.1228 33.923 58.8305 47.4309 58.8305H69.9562C69.9562 58.8305 82.612 59.0348 82.612 46.5989V26.0372C82.612 26.0372 84.5334 13.5938 59.662 13.5938ZM47.1389 20.7839C47.6757 20.7834 48.2072 20.8887 48.7032 21.0938C49.1992 21.299 49.6499 21.5999 50.0294 21.9795C50.409 22.359 50.7099 22.8097 50.9151 23.3057C51.1202 23.8017 51.2256 24.3332 51.225 24.87C51.2255 25.4067 51.1201 25.9382 50.915 26.4342C50.7098 26.9301 50.4088 27.3807 50.0293 27.7602C49.6497 28.1397 49.1991 28.4406 48.7031 28.6458C48.2072 28.8509 47.6756 28.9562 47.1389 28.9556C46.6022 28.9561 46.0707 28.8508 45.5748 28.6456C45.0789 28.4405 44.6283 28.1396 44.2488 27.7601C43.8693 27.3806 43.5684 26.93 43.3633 26.4341C43.1581 25.9382 43.0528 25.4067 43.0533 24.87C43.0527 24.3333 43.158 23.8017 43.3631 23.3058C43.5683 22.8098 43.8692 22.3592 44.2487 21.9796C44.6282 21.6001 45.0788 21.2991 45.5747 21.0939C46.0707 20.8888 46.6022 20.7834 47.1389 20.7839Z" fill="url(#paint0_linear_797_15)"/>
<path d="M60.3379 106.855C84.1373 106.855 82.6513 96.5348 82.6513 96.5348L82.6246 85.8422H59.9132V82.6317H91.6457C91.6457 82.6317 106.875 84.359 106.875 60.345C106.875 36.3309 93.5826 37.1826 93.5826 37.1826H85.6495V48.3262C85.6495 48.3262 86.077 61.6186 72.569 61.6186H50.0437C50.0437 61.6186 37.3874 61.4137 37.3874 73.8497V94.4118C37.3874 94.4118 35.466 106.855 60.3379 106.855ZM72.861 99.6651C72.3243 99.6657 71.7928 99.5604 71.2968 99.3553C70.8008 99.1501 70.3502 98.8492 69.9707 98.4697C69.5911 98.0903 69.2902 97.6396 69.085 97.1437C68.8798 96.6478 68.7744 96.1162 68.7749 95.5795C68.7744 95.0428 68.8797 94.5112 69.0848 94.0152C69.29 93.5192 69.5909 93.0685 69.9705 92.689C70.35 92.3094 70.8007 92.0085 71.2967 91.8033C71.7927 91.5982 72.3243 91.4929 72.861 91.4934C73.3978 91.4929 73.9293 91.5983 74.4253 91.8034C74.9213 92.0086 75.3719 92.3096 75.7514 92.6891C76.131 93.0686 76.4319 93.5193 76.6371 94.0152C76.8423 94.5112 76.9476 95.0428 76.9471 95.5795C76.9476 96.1162 76.8422 96.6477 76.637 97.1436C76.4318 97.6395 76.1308 98.0901 75.7513 98.4696C75.3717 98.8491 74.9211 99.15 74.4252 99.3551C73.9292 99.5603 73.3977 99.6656 72.861 99.6651Z" fill="url(#paint1_linear_797_15)"/>
<defs>
<linearGradient id="paint0_linear_797_15" x1="22.1344" y1="21.9825" x2="68.5936" y2="67.9781" gradientUnits="userSpaceOnUse">
<stop stop-color="#387EB8"/>
<stop offset="1" stop-color="#366994"/>
</linearGradient>
<linearGradient id="paint1_linear_797_15" x1="50.6512" y1="51.5179" x2="100.543" y2="98.6822" gradientUnits="userSpaceOnUse">
<stop stop-color="#FFE052"/>
<stop offset="1" stop-color="#FFC331"/>
</linearGradient>
</defs>
</svg>
