<svg width="120" height="120" viewBox="0 0 120 120" fill="none" xmlns="http://www.w3.org/2000/svg">
<rect width="120" height="120" fill="#F8F8F8"/>
<path d="M67.8344 104.915C65.4621 107.903 60.6518 106.266 60.5946 102.451L59.7588 46.6562H97.2752C104.07 46.6562 107.86 54.505 103.635 59.8267L67.8344 104.915Z" fill="url(#paint0_linear_797_27)"/>
<path d="M67.8344 104.915C65.4621 107.903 60.6518 106.266 60.5946 102.451L59.7588 46.6562H97.2752C104.07 46.6562 107.86 54.505 103.635 59.8267L67.8344 104.915Z" fill="url(#paint1_linear_797_27)" fill-opacity="0.2"/>
<path d="M52.5766 15.137C54.9489 12.1487 59.7592 13.7861 59.8164 17.6008L60.183 73.3956H23.1358C16.3403 73.3956 12.5505 65.5468 16.7763 60.2251L52.5766 15.137Z" fill="#3ECF8E"/>
<defs>
<linearGradient id="paint0_linear_797_27" x1="59.7588" y1="59.0275" x2="93.1019" y2="73.0117" gradientUnits="userSpaceOnUse">
<stop stop-color="#249361"/>
<stop offset="1" stop-color="#3ECF8E"/>
</linearGradient>
<linearGradient id="paint1_linear_797_27" x1="44.9763" y1="38.7873" x2="60.1825" y2="67.4125" gradientUnits="userSpaceOnUse">
<stop/>
<stop offset="1" stop-opacity="0"/>
</linearGradient>
</defs>
</svg>
