<svg width="120" height="120" viewBox="0 0 120 120" fill="none" xmlns="http://www.w3.org/2000/svg">
<rect width="120" height="120" fill="#F8F8F8"/>
<path d="M108.787 18.8625L87.165 8.45246C85.9441 7.86259 84.5699 7.66769 83.2332 7.89484C81.8965 8.12199 80.6637 8.75992 79.7062 9.71996L8.92499 74.25C8.0662 75.0292 7.55214 76.1177 7.49588 77.276C7.43962 78.4342 7.84577 79.5674 8.62499 80.4262C8.71749 80.5262 8.81374 80.6225 8.91374 80.715L14.6925 85.965C15.4476 86.6522 16.4196 87.0533 17.4396 87.0985C18.4596 87.1437 19.4633 86.8302 20.2762 86.2125L105.532 21.5625C106.176 21.0738 106.944 20.7746 107.749 20.6985C108.554 20.6224 109.364 20.7725 110.088 21.1319C110.812 21.4912 111.421 22.0455 111.848 22.7324C112.274 23.4193 112.5 24.2116 112.5 25.02V24.7687C112.499 23.5348 112.15 22.3261 111.494 21.2814C110.837 20.2367 109.899 19.3983 108.787 18.8625Z" fill="#0065A9"/>
<path d="M108.787 101.138L87.165 111.551C85.9435 112.138 84.5699 112.332 83.2339 112.105C81.8978 111.878 80.6652 111.241 79.7062 110.284L8.92499 45.7501C8.0662 44.9709 7.55214 43.8824 7.49588 42.7241C7.43962 41.5659 7.84577 40.4327 8.62499 39.5739C8.71749 39.4739 8.81374 39.3776 8.91374 39.2851L14.6925 34.0351C15.4484 33.345 16.4226 32.9421 17.4451 32.8969C18.4677 32.8517 19.4736 33.1669 20.2875 33.7876L105.532 98.4376C106.176 98.9263 106.944 99.2255 107.749 99.3015C108.554 99.3776 109.364 99.2276 110.088 98.8682C110.812 98.5089 111.421 97.9546 111.848 97.2676C112.274 96.5807 112.5 95.7885 112.5 94.9801V95.2501C112.496 96.4809 112.145 97.6855 111.489 98.7266C110.832 99.7676 109.896 100.603 108.787 101.138Z" fill="#007ACC"/>
<path d="M87.1649 111.551C85.9435 112.138 84.5699 112.332 83.2338 112.105C81.8977 111.878 80.6651 111.241 79.7062 110.284C80.2447 110.815 80.9281 111.176 81.6707 111.321C82.4134 111.465 83.1822 111.388 83.881 111.098C84.5797 110.807 85.1772 110.317 85.5986 109.689C86.02 109.06 86.2466 108.322 86.2499 107.565V12.4349C86.2505 11.6748 86.0255 10.9315 85.6034 10.2993C85.1813 9.66714 84.581 9.17447 83.8786 8.88372C83.1763 8.59297 82.4034 8.51723 81.6579 8.6661C80.9125 8.81496 80.228 9.18172 79.6912 9.71992C80.6482 8.75927 81.8807 8.12064 83.2175 7.89281C84.5542 7.66498 85.9287 7.85927 87.1499 8.44867L108.769 18.8437C109.884 19.3769 110.825 20.2141 111.486 21.259C112.146 22.3039 112.497 23.514 112.5 24.7499V95.2499C112.499 96.4849 112.15 97.6946 111.493 98.7401C110.835 99.7855 109.896 100.624 108.784 101.16L87.1649 111.551Z" fill="#1F9CF0"/>
</svg>
