<svg width="120" height="120" viewBox="0 0 120 120" fill="none" xmlns="http://www.w3.org/2000/svg">
<g clip-path="url(#clip0_821_223)">
<rect width="120" height="120" fill="white"/>
<path d="M0 0V120H120V0H0ZM68.4887 39.7248C68.4887 39.7248 72.2864 68.3468 72.2864 69.6677L77.7954 52.4122H77.7574C80.1876 45.8794 84.9748 39.7248 94.091 39.7248L81.1751 70.9123C80.054 74.4463 77.8299 77.5336 74.8252 79.7267C71.8204 81.9199 68.1912 83.105 64.4634 83.1102C64.4634 83.1102 60.6637 56.3004 60.6637 55.6957L54.9671 70.4228C52.4217 76.9555 47.485 83.1102 38.3687 83.1102L31.2266 39.7638C34.7022 39.8504 38.0253 41.201 40.5664 43.5598C43.1075 45.9185 44.6902 49.1217 45.0148 52.5626C45.0148 52.5626 45.9651 68.4592 45.9651 69.7048L52.6883 52.4112C55.1195 45.8785 59.7524 39.7248 68.4887 39.7248Z" fill="#4353FF"/>
</g>
<defs>
<clipPath id="clip0_821_223">
<rect width="120" height="120" fill="white"/>
</clipPath>
</defs>
</svg>
